<svg xmlns="http://www.w3.org/2000/svg" viewBox="0 0 100 100">
  <path fill="#4169E1" d="M94.7 56.3v-12.6l-11.8-2.1c-0.9-3.3-2.2-6.4-3.9-9.3l6.9-9.7-8.9-8.9-9.7 6.9c-2.9-1.7-6-3-9.3-3.9L56.3 5.3H43.7l-2.1 11.8c-3.3 0.9-6.4 2.2-9.3 3.9l-9.7-6.9-8.9 8.9 6.9 9.7c-1.7 2.9-3 6-3.9 9.3L5.3 43.7v12.6l11.8 2.1c0.9 3.3 2.2 6.4 3.9 9.3l-6.9 9.7 8.9 8.9 9.7-6.9c2.9 1.7 6 3 9.3 3.9l2.1 11.8h12.6l2.1-11.8c3.3-0.9 6.4-2.2 9.3-3.9l9.7 6.9 8.9-8.9-6.9-9.7c1.7-2.9 3-6 3.9-9.3l11.8-2.1zM50 65c-8.3 0-15-6.7-15-15s6.7-15 15-15 15 6.7 15 15-6.7 15-15 15z"/>
</svg>