<svg xmlns="http://www.w3.org/2000/svg" viewBox="0 0 100 100">
  <path fill="currentColor" d="M94.7 54.7v-9.4l-9.9-1.7c-0.7-2.6-1.8-5-3.3-7.4l5.8-8.1-6.6-6.6-8.1 5.8c-2.3-1.4-4.8-2.5-7.4-3.3l-1.7-9.9h-9.4l-1.7 9.9c-2.6 0.7-5 1.8-7.4 3.3l-8.1-5.8-6.6 6.6 5.8 8.1c-1.4 2.3-2.5 4.8-3.3 7.4l-9.9 1.7v9.4l9.9 1.7c0.7 2.6 1.8 5 3.3 7.4l-5.8 8.1 6.6 6.6 8.1-5.8c2.3 1.4 4.8 2.5 7.4 3.3l1.7 9.9h9.4l1.7-9.9c2.6-0.7 5-1.8 7.4-3.3l8.1 5.8 6.6-6.6-5.8-8.1c1.4-2.3 2.5-4.8 3.3-7.4l9.9-1.7zM50 62c-6.6 0-12-5.4-12-12s5.4-12 12-12 12 5.4 12 12-5.4 12-12 12z"/>
</svg>