{
  "accessors": [
    {
      "bufferView": 2,
      "componentType": 5126,
      "count": 62934,
      "max": [
        0.12301699817180634,
        0.2770490050315857,
        0.07314799726009369
      ],
      "min": [
        -0.013747000135481358,
        0.1661359965801239,
        0.003976999782025814
      ],
      "type": "VEC3"
    },
    {
      "bufferView": 2,
      "byteOffset": 755208,
      "componentType": 5126,
      "count": 62934,
      "max": [
        0.9999961853027344,
        0.9999969005584717,
        0.9999915361404419
      ],
      "min": [
        -0.9999037981033325,
        -0.9999765157699585,
        -0.9999979734420776
      ],
      "type": "VEC3"
    },
    {
      "bufferView": 3,
      "componentType": 5126,
      "count": 62934,
      "max": [
        0.9997335076332092,
        0.9999968409538269,
        0.9998361468315125,
        1.0
      ],
      "min": [
        -0.999947190284729,
        -0.999992847442627,
        -0.9999949932098389,
        -1.0
      ],
      "type": "VEC4"
    },
    {
      "bufferView": 1,
      "componentType": 5126,
      "count": 62934,
      "max": [
        0.992152988910675,
        0.9965890049934387
      ],
      "min": [
        0.0019529999699443579,
        0.0019529999699443579
      ],
      "type": "VEC2"
    },
    {
      "bufferView": 0,
      "componentType": 5125,
      "count": 339246,
      "type": "SCALAR"
    },
    {
      "bufferView": 2,
      "byteOffset": 1510416,
      "componentType": 5126,
      "count": 3805,
      "max": [
        0.2838580012321472,
        0.1901939958333969,
        0.033615000545978546
      ],
      "min": [
        -0.06433399766683578,
        -0.10380300134420395,
        0.002383999992161989
      ],
      "type": "VEC3"
    },
    {
      "bufferView": 2,
      "byteOffset": 1556076,
      "componentType": 5126,
      "count": 3805,
      "max": [
        0.9956766366958618,
        0.996344268321991,
        0.9998897314071655
      ],
      "min": [
        -0.9955326914787292,
        -0.9972805380821228,
        -0.9999591112136841
      ],
      "type": "VEC3"
    },
    {
      "bufferView": 3,
      "byteOffset": 1006944,
      "componentType": 5126,
      "count": 3805,
      "max": [
        0.9959405660629272,
        0.9946935176849365,
        0.9998580813407898,
        1.0
      ],
      "min": [
        -0.9999568462371826,
        -0.9907479882240295,
        -0.9997315406799316,
        1.0
      ],
      "type": "VEC4"
    },
    {
      "bufferView": 1,
      "byteOffset": 503472,
      "componentType": 5126,
      "count": 3805,
      "max": [
        0.9944360256195068,
        0.9946020245552063
      ],
      "min": [
        0.0019529999699443579,
        0.0019529999699443579
      ],
      "type": "VEC2"
    },
    {
      "bufferView": 0,
      "byteOffset": 1356984,
      "componentType": 5125,
      "count": 16332,
      "type": "SCALAR"
    },
    {
      "bufferView": 2,
      "byteOffset": 1601736,
      "componentType": 5126,
      "count": 887,
      "max": [
        0.2651839852333069,
        0.19340099394321442,
        0.03692400082945824
      ],
      "min": [
        0.007404000032693148,
        -0.14591999351978302,
        0.0025760000571608543
      ],
      "type": "VEC3"
    },
    {
      "bufferView": 2,
      "byteOffset": 1612380,
      "componentType": 5126,
      "count": 887,
      "max": [
        0.9869816303253174,
        0.9976584911346436,
        0.9931238889694214
      ],
      "min": [
        -0.9961844682693481,
        -0.996326208114624,
        -0.9968482255935669
      ],
      "type": "VEC3"
    },
    {
      "bufferView": 3,
      "byteOffset": 1067824,
      "componentType": 5126,
      "count": 887,
      "max": [
        0.9901814460754395,
        0.9995900392532349,
        0.9976676106452942,
        1.0
      ],
      "min": [
        -0.9846778512001038,
        -0.9529975056648254,
        -0.9973868727684021,
        -1.0
      ],
      "type": "VEC4"
    },
    {
      "bufferView": 1,
      "byteOffset": 533912,
      "componentType": 5126,
      "count": 887,
      "max": [
        0.9615949988365173,
        0.9722200036048889
      ],
      "min": [
        0.1627179980278015,
        0.0019529999699443579
      ],
      "type": "VEC2"
    },
    {
      "bufferView": 0,
      "byteOffset": 1422312,
      "componentType": 5125,
      "count": 3660,
      "type": "SCALAR"
    },
    {
      "bufferView": 2,
      "byteOffset": 1623024,
      "componentType": 5126,
      "count": 65533,
      "max": [
        0.24198900163173676,
        0.15333500504493713,
        0.16549399495124817
      ],
      "min": [
        -0.2128559947013855,
        -0.17861799895763397,
        0.002259999979287386
      ],
      "type": "VEC3"
    },
    {
      "bufferView": 2,
      "byteOffset": 2409420,
      "componentType": 5126,
      "count": 65533,
      "max": [
        0.9999805688858032,
        0.9999802112579346,
        0.9999997615814209
      ],
      "min": [
        -0.9999890327453613,
        -0.9999657869338989,
        -0.9999998807907104
      ],
      "type": "VEC3"
    },
    {
      "bufferView": 3,
      "byteOffset": 1082016,
      "componentType": 5126,
      "count": 65533,
      "max": [
        0.9999781847000122,
        0.9999862313270569,
        0.9999986886978149,
        1.0
      ],
      "min": [
        -0.9999992251396179,
        -0.9999924898147583,
        -1.0,
        -1.0
      ],
      "type": "VEC4"
    },
    {
      "bufferView": 1,
      "byteOffset": 541008,
      "componentType": 5126,
      "count": 65533,
      "max": [
        0.9948650002479553,
        0.9980469942092896
      ],
      "min": [
        0.0019529999699443579,
        0.0019529999699443579
      ],
      "type": "VEC2"
    },
    {
      "bufferView": 0,
      "byteOffset": 1436952,
      "componentType": 5125,
      "count": 308244,
      "type": "SCALAR"
    },
    {
      "bufferView": 2,
      "byteOffset": 3195816,
      "componentType": 5126,
      "count": 65532,
      "max": [
        0.2454639971256256,
        0.15328699350357056,
        0.16552600264549255
      ],
      "min": [
        -0.21279899775981903,
        -0.1806669980287552,
        0.0021180000621825457
      ],
      "type": "VEC3"
    },
    {
      "bufferView": 2,
      "byteOffset": 3982200,
      "componentType": 5126,
      "count": 65532,
      "max": [
        0.9999709129333496,
        0.9999569654464722,
        0.9999997615814209
      ],
      "min": [
        -0.9999945163726807,
        -0.9999960660934448,
        -0.9999995231628418
      ],
      "type": "VEC3"
    },
    {
      "bufferView": 3,
      "byteOffset": 2130544,
      "componentType": 5126,
      "count": 65532,
      "max": [
        0.9999994039535522,
        0.9999862313270569,
        0.9999993443489075,
        1.0
      ],
      "min": [
        -0.9999976754188538,
        -0.9999744296073914,
        -0.9999994039535522,
        -1.0
      ],
      "type": "VEC4"
    },
    {
      "bufferView": 1,
      "byteOffset": 1065272,
      "componentType": 5126,
      "count": 65532,
      "max": [
        0.9973779916763306,
        0.9968839883804321
      ],
      "min": [
        0.0019529999699443579,
        0.0019529999699443579
      ],
      "type": "VEC2"
    },
    {
      "bufferView": 0,
      "byteOffset": 2669928,
      "componentType": 5125,
      "count": 283836,
      "type": "SCALAR"
    },
    {
      "bufferView": 2,
      "byteOffset": 4768584,
      "componentType": 5126,
      "count": 11387,
      "max": [
        0.23598000407218933,
        0.15289700031280518,
        0.16540199518203735
      ],
      "min": [
        -0.2128559947013855,
        -0.17861799895763397,
        0.0022869999520480633
      ],
      "type": "VEC3"
    },
    {
      "bufferView": 2,
      "byteOffset": 4905228,
      "componentType": 5126,
      "count": 11387,
      "max": [
        0.9999805688858032,
        0.9998989105224609,
        0.9999958276748657
      ],
      "min": [
        -0.9998867511749268,
        -0.9999092817306519,
        -0.9999996423721313
      ],
      "type": "VEC3"
    },
    {
      "bufferView": 3,
      "byteOffset": 3179056,
      "componentType": 5126,
      "count": 11387,
      "max": [
        0.9990658164024353,
        0.9998137354850769,
        0.999998927116394,
        1.0
      ],
      "min": [
        -0.999998927116394,
        -0.9995614290237427,
        -0.9999971389770508,
        -1.0
      ],
      "type": "VEC4"
    },
    {
      "bufferView": 1,
      "byteOffset": 1589528,
      "componentType": 5126,
      "count": 11387,
      "max": [
        0.9964119791984558,
        0.992904007434845
      ],
      "min": [
        0.0019529999699443579,
        0.0019529999699443579
      ],
      "type": "VEC2"
    },
    {
      "bufferView": 0,
      "byteOffset": 3805272,
      "componentType": 5125,
      "count": 21264,
      "type": "SCALAR"
    }
  ],
  "asset": {
    "extras": {
      "author": "Virtual Museums of Małopolska (https://sketchfab.com/WirtualneMuzeaMalopolski)",
      "license": "CC-BY-4.0 (http://creativecommons.org/licenses/by/4.0/)",
      "source": "https://sketchfab.com/3d-models/factory-emergency-telephone-62cee071db0b43ec8dcab8e64aa174c7",
      "title": "Factory emergency telephone"
    },
    "generator": "Sketchfab-15.49.0",
    "version": "2.0"
  },
  "bufferViews": [
    {
      "buffer": 0,
      "byteLength": 3890328,
      "name": "floatBufferViews",
      "target": 34963
    },
    {
      "buffer": 0,
      "byteLength": 1680624,
      "byteOffset": 3890328,
      "byteStride": 8,
      "name": "floatBufferViews",
      "target": 34962
    },
    {
      "buffer": 0,
      "byteLength": 5041872,
      "byteOffset": 5570952,
      "byteStride": 12,
      "name": "floatBufferViews",
      "target": 34962
    },
    {
      "buffer": 0,
      "byteLength": 3361248,
      "byteOffset": 10612824,
      "byteStride": 16,
      "name": "floatBufferViews",
      "target": 34962
    }
  ],
  "buffers": [
    {
      "byteLength": 13974072,
      "uri": "scene.bin"
    }
  ],
  "extensionsUsed": [
    "KHR_materials_specular"
  ],
  "images": [
    {
      "uri": "textures/sluchawka_mat_baseColor.jpeg"
    },
    {
      "uri": "textures/sluchawka_mat_metallicRoughness.png"
    },
    {
      "uri": "textures/sluchawka_mat_normal.png"
    },
    {
      "uri": "textures/sluchawka_mat_specularf0.png"
    },
    {
      "uri": "textures/telefon_mat_baseColor.jpeg"
    },
    {
      "uri": "textures/telefon_mat_metallicRoughness.png"
    },
    {
      "uri": "textures/telefon_mat_normal.png"
    },
    {
      "uri": "textures/telefon_mat_specularf0.png"
    }
  ],
  "materials": [
    {
      "doubleSided": true,
      "extensions": {
        "KHR_materials_specular": {
          "specularColorFactor": [
            1.0,
            1.0,
            1.0
          ],
          "specularFactor": 1.0,
          "specularTexture": {
            "index": 3
          }
        }
      },
      "name": "sluchawka_mat",
      "normalTexture": {
        "index": 2
      },
      "occlusionTexture": {
        "index": 1
      },
      "pbrMetallicRoughness": {
        "baseColorTexture": {
          "index": 0
        },
        "metallicRoughnessTexture": {
          "index": 1
        }
      }
    },
    {
      "doubleSided": true,
      "extensions": {
        "KHR_materials_specular": {
          "specularColorFactor": [
            1.0,
            1.0,
            1.0
          ],
          "specularFactor": 1.0,
          "specularTexture": {
            "index": 7
          }
        }
      },
      "name": "telefon_mat",
      "normalTexture": {
        "index": 6
      },
      "occlusionTexture": {
        "index": 5
      },
      "pbrMetallicRoughness": {
        "baseColorTexture": {
          "index": 4
        },
        "metallicRoughnessTexture": {
          "index": 5
        }
      }
    }
  ],
  "meshes": [
    {
      "name": "Object_0",
      "primitives": [
        {
          "attributes": {
            "NORMAL": 1,
            "POSITION": 0,
            "TANGENT": 2,
            "TEXCOORD_0": 3
          },
          "indices": 4,
          "material": 0,
          "mode": 4
        }
      ]
    },
    {
      "name": "Object_1",
      "primitives": [
        {
          "attributes": {
            "NORMAL": 6,
            "POSITION": 5,
            "TANGENT": 7,
            "TEXCOORD_0": 8
          },
          "indices": 9,
          "material": 1,
          "mode": 4
        }
      ]
    },
    {
      "name": "Object_2",
      "primitives": [
        {
          "attributes": {
            "NORMAL": 11,
            "POSITION": 10,
            "TANGENT": 12,
            "TEXCOORD_0": 13
          },
          "indices": 14,
          "material": 1,
          "mode": 4
        }
      ]
    },
    {
      "name": "Object_3",
      "primitives": [
        {
          "attributes": {
            "NORMAL": 16,
            "POSITION": 15,
            "TANGENT": 17,
            "TEXCOORD_0": 18
          },
          "indices": 19,
          "material": 1,
          "mode": 4
        }
      ]
    },
    {
      "name": "Object_4",
      "primitives": [
        {
          "attributes": {
            "NORMAL": 21,
            "POSITION": 20,
            "TANGENT": 22,
            "TEXCOORD_0": 23
          },
          "indices": 24,
          "material": 1,
          "mode": 4
        }
      ]
    },
    {
      "name": "Object_5",
      "primitives": [
        {
          "attributes": {
            "NORMAL": 26,
            "POSITION": 25,
            "TANGENT": 27,
            "TEXCOORD_0": 28
          },
          "indices": 29,
          "material": 1,
          "mode": 4
        }
      ]
    }
  ],
  "nodes": [
    {
      "children": [
        1
      ],
      "matrix": [
        1.7898595333099365,
        0.0,
        0.0,
        0.0,
        0.0,
        3.9742865294510577e-16,
        -1.7898595333099365,
        0.0,
        0.0,
        1.7898595333099365,
        3.9742865294510577e-16,
        0.0,
        0.0,
        0.0,
        0.0,
        1.0
      ],
      "name": "Sketchfab_model"
    },
    {
      "children": [
        2,
        3,
        4,
        5,
        6,
        7
      ],
      "name": "telefon.obj.cleaner.materialmerger.gles"
    },
    {
      "mesh": 0,
      "name": "Object_2"
    },
    {
      "mesh": 1,
      "name": "Object_3"
    },
    {
      "mesh": 2,
      "name": "Object_4"
    },
    {
      "mesh": 3,
      "name": "Object_5"
    },
    {
      "mesh": 4,
      "name": "Object_6"
    },
    {
      "mesh": 5,
      "name": "Object_7"
    }
  ],
  "samplers": [
    {
      "magFilter": 9729,
      "minFilter": 9987,
      "wrapS": 10497,
      "wrapT": 10497
    }
  ],
  "scene": 0,
  "scenes": [
    {
      "name": "Sketchfab_Scene",
      "nodes": [
        0
      ]
    }
  ],
  "textures": [
    {
      "sampler": 0,
      "source": 0
    },
    {
      "sampler": 0,
      "source": 1
    },
    {
      "sampler": 0,
      "source": 2
    },
    {
      "sampler": 0,
      "source": 3
    },
    {
      "sampler": 0,
      "source": 4
    },
    {
      "sampler": 0,
      "source": 5
    },
    {
      "sampler": 0,
      "source": 6
    },
    {
      "sampler": 0,
      "source": 7
    }
  ]
}
